<svg width="21" height="20" viewBox="0 0 21 20" fill="none" xmlns="http://www.w3.org/2000/svg">
<path d="M20.7549 12.4481V19.8691H16.4524V12.9455C16.4524 11.207 15.8312 10.0198 14.2734 10.0198C13.0846 10.0198 12.3783 10.8191 12.0665 11.593C11.9532 11.8696 11.924 12.2537 11.924 12.6416V19.8688H7.62117C7.62117 19.8688 7.67892 8.14241 7.62117 6.92857H11.9243V8.76233C11.9157 8.77677 11.9035 8.79089 11.8958 8.80468H11.9243V8.76233C12.4961 7.88251 13.5158 6.62471 15.802 6.62471C18.6327 6.62471 20.7549 8.47419 20.7549 12.4481ZM3.12004 0.690918C1.64822 0.690918 0.685303 1.65705 0.685303 2.9264C0.685303 4.1688 1.62031 5.16284 3.06357 5.16284H3.09149C4.59218 5.16284 5.52526 4.1688 5.52526 2.9264C5.49671 1.65705 4.59218 0.690918 3.12004 0.690918ZM0.941034 19.8691H5.24226V6.92857H0.941034V19.8691Z" fill="white"/>
</svg>
