<svg width="19" height="19" viewBox="0 0 19 19" fill="none" xmlns="http://www.w3.org/2000/svg">
<path d="M18.426 8.09505L1.42601 0.0950449C1.25482 0.0144952 1.0643 -0.0158421 0.876566 0.00755579C0.688831 0.0309537 0.511584 0.107127 0.365408 0.22723C0.219232 0.347333 0.110125 0.506438 0.0507558 0.686069C-0.00861317 0.8657 -0.015808 1.05849 0.030007 1.24205L1.24201 6.09104L9.00001 9.00004L1.24201 11.909L0.030007 16.758C-0.01667 16.9417 -0.0100757 17.1349 0.0490187 17.315C0.108113 17.4951 0.217264 17.6546 0.363704 17.7749C0.510143 17.8953 0.687816 17.9714 0.87594 17.9944C1.06406 18.0175 1.25486 17.9865 1.42601 17.905L18.426 9.90504C18.5978 9.82429 18.7431 9.6963 18.8448 9.53604C18.9466 9.37578 19.0006 9.18988 19.0006 9.00004C19.0006 8.81021 18.9466 8.6243 18.8448 8.46405C18.7431 8.30379 18.5978 8.1758 18.426 8.09505Z" fill="#ABAFC7"/>
</svg>
