<svg width="61" height="63" viewBox="0 0 61 63" fill="none" xmlns="http://www.w3.org/2000/svg">
<path d="M0 31.4176C8.39476 31.0036 15.5116 27.7646 21.3505 21.7005C27.1895 15.6364 30.1089 8.40286 30.1089 0C30.1089 8.40286 33.0388 15.6364 38.8985 21.7005C44.7582 27.7646 51.8855 31.0036 60.2802 31.4176C54.753 31.6659 49.6829 33.2285 45.0699 36.1054C40.4569 38.9822 36.8102 42.7904 34.1297 47.53C31.4492 52.2695 30.1089 57.4126 30.1089 62.9593C30.1089 54.5151 27.1895 47.2505 21.3505 41.1657C15.5116 35.0809 8.39476 31.8315 0 31.4176Z" fill="url(#paint0_linear_202_76)" fill-opacity="0.4"/>
<defs>
<linearGradient id="paint0_linear_202_76" x1="1.25584" y1="9.55632" x2="62.6744" y2="13.16" gradientUnits="userSpaceOnUse">
<stop stop-color="#9B51E0"/>
<stop offset="1" stop-color="#3081ED"/>
</linearGradient>
</defs>
</svg>
