<svg width="48" height="48" viewBox="0 0 48 48" fill="none" xmlns="http://www.w3.org/2000/svg">
<path d="M16.5769 5.68684C19.1918 -1.11001 28.8082 -1.11001 31.4231 5.68684C32.6535 8.88504 35.6497 11.101 39.0569 11.3963C46.2913 12.0233 49.4908 20.9391 44.1952 25.8431L43.2907 26.6807C40.8096 28.9784 39.7328 32.4192 40.4614 35.7214L40.8299 37.3913C42.3458 44.2616 34.7376 49.4911 28.8665 45.6143C25.9149 43.6653 22.0851 43.6653 19.1335 45.6143C13.2624 49.4911 5.65423 44.2616 7.17013 37.3914L7.5386 35.7214C8.26721 32.4192 7.19036 28.9783 4.70927 26.6807L3.80481 25.8431C-1.49079 20.9391 1.70873 12.0233 8.94308 11.3963C12.3503 11.101 15.3465 8.88504 16.5769 5.68684Z" fill="url(#paint0_linear_202_184)" stroke="white"/>
<defs>
<linearGradient id="paint0_linear_202_184" x1="-11.4583" y1="-2.85715" x2="63.9563" y2="1.41772" gradientUnits="userSpaceOnUse">
<stop stop-color="#9B51E0"/>
<stop offset="1" stop-color="#3081ED"/>
</linearGradient>
</defs>
</svg>
