<svg width="99" height="94" viewBox="0 0 99 94" fill="none" xmlns="http://www.w3.org/2000/svg">
<path d="M75.5525 85.1612C76.1292 84.956 76.3681 84.9822 76.5741 84.8584C88.3323 73.6252 94.958 59.8998 94.9848 43.3745C95.0018 39.2016 93.9477 35.1064 92.0203 31.2815C87.9596 23.0475 79.4494 18.6218 70.5101 20.0327C65.8468 20.7413 61.513 22.243 58.0688 25.6733C58.2497 27.9149 58.5049 30.1401 58.5046 32.2641C58.4877 35.729 57.3751 38.8051 54.6972 41.1233C52.7526 42.8873 50.5281 43.3754 49.0781 42.4349C47.1751 41.2006 46.714 39.0992 47.2992 37.1615C48.107 34.467 49.2442 31.8575 50.4886 29.3819C51.3044 27.7869 52.5404 26.3358 53.6281 24.9171C50.5066 16.7131 41.782 14.8517 33.0646 20.4618C33.0315 21.7276 33.0148 23.0686 32.9076 24.3507C32.3962 29.1041 30.3936 33.0834 26.2904 35.6357C24.7167 36.6104 22.9123 37.2423 21.0834 35.9917C19.7076 35.0349 19.2465 32.9335 19.9718 30.5718C21.1752 26.8465 23.5566 23.8854 26.2263 21.1757C27.1903 20.2561 28.1544 19.3366 29.1349 18.4922C24.7699 5.6838 11.086 -1.06783 0.819503 6.69144C0.679565 5.69952 0.424257 4.89024 0.622052 4.37485C0.877531 3.76815 1.62732 3.28896 2.26175 2.99242C8.30113 0.408568 14.3238 -0.126356 20.1647 3.46912C24.5556 6.12414 27.9249 9.79 30.6102 14.2352C30.9809 14.8619 31.3515 15.4885 31.7963 16.0989C31.8128 16.1739 31.9776 16.2164 32.3236 16.3765C32.9745 16.155 33.7901 15.976 34.5729 15.647C44.1633 11.8906 49.9468 13.4534 56.6027 21.8258C57.4267 21.3304 58.3989 20.8024 59.2806 20.2156C64.562 17.0114 70.2388 15.6084 76.4508 16.2906C86.5597 17.3762 94.4351 24.2225 97.3751 34.4329C98.981 39.9803 99.2028 45.5955 98.3535 51.2883C96.2426 65.0457 90.4246 76.7846 79.8448 85.95C79.3339 86.4554 78.7324 86.902 78.2216 87.4074C78.1639 87.4987 78.1227 87.6651 77.999 88.1642C80.6519 88.2114 82.9754 87.4656 85.3153 86.7948C87.5975 86.2153 89.9209 85.4695 92.4092 84.7662C92.6149 86.7663 91.7414 87.7446 90.5797 88.4715C89.1955 89.2472 87.8442 90.1731 86.3776 90.5735C82.4064 91.6023 78.3445 92.5723 74.2168 93.242C70.9789 93.7165 69.7103 92.1856 70.5428 89.2497C72.3643 83.0289 74.26 76.7918 76.1557 70.5547C76.4771 69.5402 76.9798 68.6433 77.5649 67.4136C79.3361 68.7555 79.0064 70.0865 78.7344 71.3261C77.5474 75.8344 76.5829 80.2939 75.5525 85.1612ZM22.8139 33.252C27.7821 31.4539 30.246 27.452 29.4474 22.7501C26.5305 25.7501 23.7125 28.4924 22.8139 33.252ZM50.4297 39.3851C54.5741 37.3744 55.9916 33.9168 54.5421 29.4364C52.2513 32.4563 50.2984 35.2448 50.4297 39.3851Z" fill="white"/>
</svg>
