<svg width="86" height="42" viewBox="0 0 86 42" fill="none" xmlns="http://www.w3.org/2000/svg">
<path fill-rule="evenodd" clip-rule="evenodd" d="M58.7116 3.40965C58.5946 3.44087 58.477 3.47223 58.359 3.5037C48.2621 6.1956 20.2533 15.1826 6.86899 19.4771C4.50183 20.2367 2.59211 20.8494 1.31984 21.2546C0.787834 21.4241 0.21858 21.1321 0.0483718 20.6025C-0.121836 20.073 0.171456 19.5063 0.703459 19.3369C1.96428 18.9353 3.86174 18.3265 6.21694 17.5707C19.5804 13.2827 47.6806 4.26614 57.8357 1.55871C57.9557 1.52672 58.0755 1.49474 58.1951 1.46283C59.5434 1.10307 60.8583 0.752231 61.9926 0.48688C63.194 0.205853 64.3124 -0.00976818 65.0773 0.000341397C65.2779 0.00299286 65.4989 0.0209271 65.7127 0.0765283C65.9168 0.129603 66.2086 0.241235 66.4434 0.500113C66.7112 0.795432 66.798 1.16275 66.7604 1.49908C66.7274 1.79468 66.6036 2.04479 66.4895 2.22836C66.2606 2.59672 65.8854 2.98718 65.4253 3.39744C64.95 3.82127 64.3232 4.31896 63.5335 4.89943C60.5787 7.07113 57.5029 9.0844 54.4579 11.0776C53.1301 11.9468 51.8081 12.8121 50.5045 13.6851C46.187 16.5765 42.0219 19.5823 38.2963 23.1982C38.2963 23.1982 38.2951 23.1995 38.2919 23.2028C38.2733 23.2223 38.1955 23.3034 38.0558 23.4526C37.9033 23.6155 37.6944 23.8411 37.4511 24.1083C36.9636 24.6437 36.3438 25.3404 35.7667 26.032C35.3974 26.4747 35.0584 26.9002 34.7856 27.2718C35.3709 27.2371 35.9695 27.1546 36.5876 27.0449C37.1343 26.9479 37.683 26.8321 38.2494 26.7125L38.2577 26.7108C38.8161 26.5929 39.3922 26.4713 39.9698 26.3688C49.0635 24.7563 58.0727 22.7395 67.1114 20.716C67.8677 20.5467 68.6569 20.367 69.4687 20.1823C73.2073 19.3313 77.4227 18.3719 81.0949 17.8116C81.3449 17.7734 81.5961 17.7289 81.862 17.6818L81.9686 17.663C82.2688 17.6099 82.5862 17.5548 82.9079 17.5104C83.5499 17.4218 84.2529 17.3686 84.9783 17.462C85.5376 17.534 85.8396 17.9457 85.9426 18.2846C86.0285 18.5671 86.0007 18.8324 85.9697 18.996C85.9351 19.179 85.8721 19.3603 85.7897 19.5223C85.7147 19.6698 85.5832 19.8815 85.368 20.0494C84.9634 20.3649 84.1617 20.8189 83.2802 21.2886C82.3667 21.7755 81.2744 22.3273 80.2219 22.8479C79.1682 23.3691 78.1486 23.8618 77.3788 24.2311C76.9938 24.4158 76.671 24.5697 76.4375 24.6809L76.1582 24.8139L76.0766 24.8529C76.0673 24.8573 76.0606 24.8606 76.0558 24.8629L76.0465 24.8674C74.9211 25.426 73.7833 25.9765 72.6431 26.5281C68.0335 28.7583 63.3838 31.008 59.348 33.8916C59.3256 33.9076 59.3023 33.9242 59.2782 33.9414C59.1307 34.0462 58.9524 34.1729 58.7692 34.3217C58.693 34.3836 58.6234 34.4434 58.5613 34.5003C60.6277 35.0322 63.0535 35.1315 65.5706 35.0634C66.8561 35.0287 68.1466 34.9511 69.4098 34.8707C69.5549 34.8615 69.6996 34.8522 69.8441 34.843C70.9508 34.7721 72.0361 34.7026 73.0528 34.6648C73.186 34.6599 73.5984 34.6392 74.1849 34.6097C76.49 34.494 81.4834 34.2433 82.7758 34.2837C83.2899 34.2998 83.8235 34.3923 84.2501 34.6854C84.7521 35.0304 84.9633 35.5511 84.9512 36.0702C84.9407 36.5184 84.7687 36.9388 84.5948 37.2702C84.4119 37.6186 84.1714 37.9711 83.9202 38.3048C83.5262 38.828 83.0477 39.3791 82.6265 39.8643C82.5164 39.9911 82.4102 40.1134 82.3104 40.2296C82.0604 40.5206 81.8509 40.7723 81.6936 40.9833C81.5358 41.1952 81.4857 41.2949 81.4784 41.3095L81.4774 41.3113C81.3008 41.8388 80.728 42.1239 80.1981 41.9481C79.6682 41.7722 79.3818 41.2021 79.5585 40.6746C79.6674 40.3493 79.8851 40.0306 80.069 39.7838C80.2709 39.5128 80.5195 39.2163 80.773 38.9211C80.8887 38.7864 81.006 38.6512 81.1232 38.5161C81.5387 38.0373 81.9543 37.5584 82.3016 37.0971C82.5215 36.8051 82.6905 36.5502 82.8019 36.3379C82.8084 36.3255 82.8146 36.3134 82.8205 36.3017C82.7877 36.2994 82.7517 36.2975 82.7122 36.2963C81.5228 36.259 76.8839 36.4913 74.4953 36.6108C73.8082 36.6452 73.3073 36.6703 73.1283 36.677C72.1409 36.7137 71.0847 36.7813 69.974 36.8524C69.8298 36.8616 69.6848 36.8709 69.5388 36.8802C68.2748 36.9606 66.9516 37.0404 65.6256 37.0762C62.9862 37.1476 60.2595 37.0487 57.8663 36.3999C57.2875 36.243 56.6143 35.9335 56.3523 35.2465C56.0836 34.542 56.427 33.9257 56.6464 33.6191C56.893 33.2746 57.225 32.977 57.4907 32.7613C57.7288 32.5681 57.964 32.4011 58.1094 32.2979C58.1312 32.2824 58.151 32.2684 58.1685 32.2559C62.359 29.2617 67.2084 26.9166 71.8314 24.6811C72.9531 24.1387 74.0615 23.6027 75.1439 23.0654C75.1706 23.0522 75.2789 23.0006 75.45 22.9191C75.6921 22.8038 76.0601 22.6286 76.5007 22.4172C77.2663 22.0499 78.278 21.561 79.3218 21.0447C80.2241 20.5983 81.1462 20.1337 81.9523 19.7108C81.7711 19.7424 81.5861 19.7737 81.4014 19.8019C77.8098 20.3499 73.6864 21.2882 69.9484 22.1387C69.1289 22.3252 68.3279 22.5074 67.5552 22.6804L67.544 22.683C58.5164 24.704 49.4666 26.73 40.3245 28.3512C39.7821 28.4474 39.2357 28.5626 38.6691 28.6823L38.6618 28.6838C38.1031 28.8018 37.5247 28.9239 36.9428 29.0272C35.7745 29.2346 34.5387 29.3767 33.2728 29.2631C32.9692 29.2358 32.557 29.0831 32.3274 28.6512C32.1392 28.2975 32.1861 27.9507 32.2204 27.7851C32.2925 27.4378 32.4881 27.0837 32.6582 26.8082C33.0286 26.2083 33.6172 25.4568 34.2107 24.7455C35.4039 23.3154 36.7706 21.8668 36.8843 21.7565C40.7422 18.0121 45.0279 14.9259 49.3754 12.0144C50.7174 11.1157 52.0608 10.2364 53.3997 9.36005C56.4227 7.38139 59.4228 5.41776 62.332 3.27957C62.9167 2.84985 63.3889 2.48152 63.7622 2.16832C63.3844 2.23852 62.9476 2.33189 62.4554 2.44703C61.3534 2.7048 60.0692 3.04743 58.7116 3.40965ZM58.2517 34.856C58.2517 34.856 58.2531 34.851 58.2593 34.8402C58.2554 34.8504 58.2517 34.856 58.2517 34.856Z" fill="white" fill-opacity="0.8"/>
</svg>
