<svg width="49" height="50" viewBox="0 0 49 50" fill="none" xmlns="http://www.w3.org/2000/svg">
<path d="M32.143 46.4323C29.7416 46.4323 27.3942 45.7202 25.3975 44.386C23.4009 43.0519 21.8447 41.1557 20.9257 38.9371C20.0067 36.7185 19.7663 34.2772 20.2348 31.922C20.7033 29.5668 21.8596 27.4034 23.5576 25.7053C25.2557 24.0073 27.4191 22.851 29.7743 22.3825C32.1295 21.914 34.5708 22.1544 36.7894 23.0734C39.008 23.9924 40.9042 25.5486 42.2383 27.5452C43.5725 29.5419 44.2846 31.8893 44.2846 34.2907C44.2846 37.5109 43.0054 40.5991 40.7284 42.8761C38.4514 45.1531 35.3632 46.4323 32.143 46.4323ZM32.143 25.1846C30.342 25.1846 28.5814 25.7186 27.0839 26.7192C25.5864 27.7198 24.4192 29.142 23.73 30.8059C23.0408 32.4699 22.8605 34.3008 23.2118 36.0672C23.5632 37.8337 24.4305 39.4562 25.704 40.7297C26.9775 42.0033 28.6001 42.8705 30.3665 43.2219C32.1329 43.5733 33.9639 43.3929 35.6278 42.7037C37.2917 42.0145 38.7139 40.8473 39.7145 39.3498C40.7151 37.8523 41.2492 36.0917 41.2492 34.2907C41.2492 31.8756 40.2898 29.5594 38.582 27.8517C36.8743 26.144 34.5581 25.1846 32.143 25.1846Z" fill="white"/>
<path d="M34.5561 38.8441L30.6252 34.9132V28.2202H33.6606V33.6687L36.696 36.7041L34.5561 38.8441Z" fill="white"/>
<path d="M42.7667 10.0078C42.7667 9.20275 42.4469 8.43069 41.8776 7.86144C41.3084 7.2922 40.5363 6.9724 39.7313 6.9724H33.6605V3.93701H30.6251V6.9724H18.4836V3.93701H15.4482V6.9724H9.37743C8.57239 6.9724 7.80033 7.2922 7.23108 7.86144C6.66184 8.43069 6.34204 9.20275 6.34204 10.0078V40.3616C6.34204 41.1667 6.66184 41.9387 7.23108 42.508C7.80033 43.0772 8.57239 43.397 9.37743 43.397H15.4482V40.3616H9.37743V10.0078H15.4482V13.0432H18.4836V10.0078H30.6251V13.0432H33.6605V10.0078H39.7313V19.1139H42.7667V10.0078Z" fill="white"/>
</svg>
