<svg width="45" height="44" viewBox="0 0 45 44" fill="none" xmlns="http://www.w3.org/2000/svg">
<g clip-path="url(#clip0_202_130)">
<path d="M0.891357 28.9894C1.05988 28.1521 1.24111 27.318 1.39585 26.4785C1.96288 23.4039 2.51506 20.3271 3.08421 17.2535C3.29936 16.0909 4.11757 15.3871 5.29614 15.3807C8.1302 15.3659 10.9653 15.3627 13.7983 15.3913C14.218 15.3956 14.6674 15.5323 15.0479 15.7188C17.8279 17.0839 20.6111 18.4459 23.3519 19.8873C23.9624 20.2084 24.4383 20.2317 25.0668 20.0484C29.0921 18.8698 33.1302 17.7336 37.1619 16.5773C37.5562 16.4639 37.9356 16.4067 38.297 16.6494C38.6521 16.8879 38.8534 17.227 38.7877 17.6563C38.7146 18.1385 38.4359 18.4692 37.9462 18.6091C36.1995 19.1051 34.455 19.6075 32.7094 20.1067C30.1785 20.8305 27.6497 21.5608 25.1155 22.2698C24.8156 22.3536 24.6958 22.4744 24.7213 22.786C24.7478 23.122 24.7297 23.4622 24.7266 23.8003C24.7096 25.5586 23.4759 26.5135 21.7664 26.0864C20.0314 25.654 18.2985 25.2141 16.5646 24.7785C16.3197 24.7171 16.0739 24.663 15.7782 24.5931C15.6976 25.2767 15.6149 25.9444 15.5407 26.6121C15.1497 30.1128 14.7618 33.6146 14.3707 37.1153C14.2 38.6415 14.0538 40.1709 13.846 41.6918C13.6913 42.8184 12.8243 43.5285 11.6701 43.5391C10.2881 43.5529 8.90602 43.5487 7.52502 43.5412C6.15568 43.5328 5.30992 42.67 5.20393 41.2678C4.96758 38.119 4.70474 34.9733 4.45249 31.8255C4.44825 31.7715 4.43235 31.7185 4.41115 31.604C2.88813 31.728 1.42235 31.6782 0.892417 29.8341C0.891357 29.5532 0.891357 29.2713 0.891357 28.9894ZM8.4789 17.5789C7.36074 17.5789 6.29559 17.5789 5.21983 17.5789C4.49912 21.5417 3.78266 25.4812 3.05877 29.4684C4.12181 29.4684 5.10642 29.4748 6.09209 29.4642C6.34858 29.461 6.46092 29.5203 6.48212 29.8076C6.73119 33.1101 6.99297 36.4116 7.25476 39.7141C7.29821 40.2567 7.35227 40.7983 7.40102 41.342C8.86787 41.342 10.2849 41.342 11.7263 41.342C12.4491 34.8461 13.1688 28.3736 13.8916 21.883C16.8179 22.6132 19.6657 23.3233 22.556 24.044C22.556 23.3996 22.5379 22.822 22.5634 22.2465C22.5761 21.9582 22.468 21.8279 22.22 21.706C19.9614 20.5878 17.688 19.4951 15.4634 18.3123C14.4099 17.7527 13.3596 17.4284 12.1662 17.546C11.6701 17.5948 11.1646 17.5545 10.6347 17.5545C10.6347 17.7729 10.6347 17.9255 10.6347 18.0791C10.6347 20.0674 10.6389 22.0557 10.6315 24.043C10.6283 24.8167 10.0613 25.3148 9.35222 25.1919C8.81699 25.0997 8.48208 24.6418 8.47996 23.9699C8.47572 22.0102 8.47784 20.0505 8.47784 18.0897C8.4789 17.9244 8.4789 17.7591 8.4789 17.5789Z" fill="white"/>
<path d="M10.285 0.217285C10.5002 0.269218 10.7154 0.322211 10.9316 0.372025C14.0963 1.09061 16.1482 3.79537 16.038 7.10638C15.9394 10.0761 13.5674 12.6632 10.4991 13.1444C6.57872 13.7602 2.9487 10.5541 3.07164 6.58599C3.17233 3.34493 5.43089 0.799149 8.65498 0.291475C8.72069 0.280877 8.78323 0.242722 8.84682 0.218345C9.32587 0.217285 9.80493 0.217285 10.285 0.217285ZM9.52831 11.048C11.9003 11.0607 13.861 9.12647 13.8896 6.74603C13.9182 4.3889 11.9628 2.41226 9.58554 2.39318C7.21675 2.3741 5.24329 4.31683 5.2221 6.68985C5.2009 9.04062 7.17224 11.0353 9.52831 11.048Z" fill="white"/>
<path d="M32.2962 35.7171C32.2962 37.9025 32.3026 40.0879 32.2878 42.2733C32.2856 42.5277 32.221 42.8075 32.1012 43.0312C31.8808 43.4403 31.3964 43.6194 30.9809 43.5144C30.5369 43.4021 30.1967 43.01 30.1543 42.5532C30.1405 42.3995 30.1415 42.2437 30.1415 42.0879C30.1405 40.0996 30.1415 38.1113 30.1415 36.123C30.1415 35.9873 30.1415 35.8517 30.1415 35.7149C30.1129 35.7033 30.0832 35.6927 30.0546 35.681C29.9794 35.804 29.9041 35.9269 29.8299 36.0509C28.4818 38.2978 27.139 40.5479 25.777 42.7863C25.6234 43.0386 25.3912 43.277 25.139 43.4254C24.75 43.6533 24.3462 43.5568 24.0049 43.2622C23.6944 42.993 23.5619 42.4885 23.7092 42.1038C23.7739 41.9342 23.8703 41.7763 23.9647 41.6194C25.652 38.8034 27.3414 35.9894 29.0287 33.1734C29.1061 33.0451 29.1749 32.9105 29.2862 32.7113C29.0764 32.7113 28.9291 32.7113 28.7817 32.7113C26.0738 32.7113 23.3669 32.7123 20.659 32.7113C19.0925 32.7102 18.2319 31.8464 18.2287 30.2757C18.2277 29.3473 18.2287 28.4189 18.2287 27.4364C18.9144 27.6038 19.5557 27.749 20.1863 27.9303C20.2774 27.9568 20.3717 28.1581 20.3739 28.2811C20.3919 29.0113 20.3823 29.7426 20.3823 30.5057C27.6064 30.5057 34.7901 30.5057 42.0099 30.5057C42.0099 24.7687 42.0099 19.0264 42.0099 13.2523C34.824 13.2523 27.6392 13.2523 20.4014 13.2523C20.4014 14.1192 20.4014 14.9851 20.4014 15.957C19.6563 15.585 18.9929 15.2618 18.34 14.9173C18.2711 14.8813 18.2351 14.7276 18.234 14.6269C18.2245 14.1341 18.2192 13.6391 18.2361 13.1463C18.2743 12.0419 19.0925 11.176 20.1937 11.0647C20.376 11.0467 20.5593 11.0499 20.7427 11.0499C27.7229 11.0488 34.7032 11.0488 41.6834 11.0499C43.3877 11.0499 44.2175 11.885 44.2175 13.5988C44.2175 19.1408 44.2175 24.6828 44.2175 30.2249C44.2175 31.8496 43.3622 32.7113 41.747 32.7124C39.0539 32.7134 36.3597 32.7124 33.6666 32.7124C33.5161 32.7124 33.3656 32.7124 33.1505 32.7124C33.2628 32.9116 33.3402 33.0568 33.425 33.1967C35.1356 36.0477 36.8473 38.8977 38.5558 41.7498C38.9214 42.3603 38.8494 42.9474 38.382 43.3057C37.852 43.7116 37.1652 43.5844 36.7752 42.9803C36.4308 42.4482 36.117 41.896 35.7917 41.3534C34.7339 39.5898 33.6762 37.8251 32.6174 36.0615C32.54 35.9333 32.4595 35.8071 32.381 35.681C32.3535 35.6927 32.3249 35.7054 32.2962 35.7171Z" fill="white"/>
</g>
<defs>
<clipPath id="clip0_202_130">
<rect width="43.3271" height="43.3345" fill="white" transform="translate(0.891357 0.217285)"/>
</clipPath>
</defs>
</svg>
