<svg width="22" height="18" viewBox="0 0 22 18" fill="none" xmlns="http://www.w3.org/2000/svg">
<path d="M21.0257 2.93605C20.2544 3.27809 19.4246 3.50943 18.5544 3.61275C19.4429 3.08044 20.1247 2.23817 20.4466 1.2329C19.6152 1.72607 18.694 2.08384 17.7144 2.27668C16.9296 1.44082 15.8114 0.918457 14.5731 0.918457C12.1975 0.918457 10.2707 2.84525 10.2707 5.22092C10.2707 5.55815 10.3089 5.8864 10.3827 6.20149C6.80695 6.02212 3.63649 4.30935 1.5143 1.70554C1.14402 2.34085 0.931609 3.08044 0.931609 3.8688C0.931609 5.36114 1.69174 6.67861 2.84556 7.44997C2.14062 7.42783 1.47676 7.23435 0.896956 6.91124C0.896635 6.92953 0.896635 6.94781 0.896635 6.96578C0.896635 9.05044 2.38031 10.7892 4.34817 11.1842C3.98752 11.283 3.60665 11.3353 3.21488 11.3353C2.93701 11.3353 2.66781 11.3087 2.40534 11.2586C2.95273 12.9675 4.54133 14.2115 6.42448 14.2465C4.95172 15.4007 3.0968 16.0883 1.08049 16.0883C0.733957 16.0883 0.390632 16.0681 0.0546875 16.0279C1.95773 17.2492 4.21982 17.9612 6.64941 17.9612C14.5632 17.9612 18.891 11.4053 18.891 5.71923C18.891 5.5328 18.8868 5.34702 18.8785 5.16285C19.7198 4.55641 20.4491 3.79886 21.0257 2.93605Z" fill="white"/>
</svg>
